
<svg  xmlns="http://www.w3.org/2000/svg" viewBox="0 0 500 500" >
<path d="M185,240H65c-30.3,0-55-24.8-55-55V65c0-30.3,24.8-55,55-55h120c30.3,0,55,24.8,55,55v120C240,215.3,215.3,240,185,240z"/>
<path d="M435,240H315c-30.3,0-55-24.8-55-55V65c0-30.3,24.8-55,55-55h120c30.3,0,55,24.8,55,55v120C490,215.3,465.3,240,435,240z"/>
<path d="M435,490H315c-30.3,0-55-24.8-55-55V315c0-30.3,24.8-55,55-55h120c30.3,0,55,24.8,55,55v120C490,465.3,465.3,490,435,490z"
	/>
<path d="M185,490H65c-30.3,0-55-24.8-55-55V315c0-30.3,24.8-55,55-55h120c30.3,0,55,24.8,55,55v120C240,465.3,215.3,490,185,490z"/>
</svg>
