
<svg xmlns="http://www.w3.org/2000/svg" viewBox="0 0 500 500" >
<path  d="M410,13.5H90c-35.8,0-65,29.3-65,65v345c0,35.8,29.3,65,65,65h320c35.8,0,65-29.3,65-65v-345
	C475,42.8,445.8,13.5,410,13.5z M94.6,73.6C107.3,60.9,124.8,53,144,53s36.8,7.9,49.4,20.6C206.1,86.3,214,103.8,214,123
	s-7.9,36.8-20.6,49.4C180.8,185.1,163.3,193,144,193c-38.5,0-70-31.5-70-70C74,103.8,81.9,86.3,94.6,73.6z M266,412.5
	c0,6.6-5.4,12-12,12H86c-6.6,0-12-5.4-12-12v-11c0-6.6,5.4-12,12-12h168c6.6,0,12,5.4,12,12V412.5z M407,345c0,6.6-5.4,12-12,12H86
	c-6.6,0-12-5.4-12-12v-11c0-6.6,5.4-12,12-12h309c6.6,0,12,5.4,12,12V345z"/>
</svg>
